<svg xmlns="http://www.w3.org/2000/svg" viewBox="0 0 124 24" fill="currentColor">
  <g fill-rule="evenodd">
    <path d="M0 0h12.43v7.73H7.06v3.52h5.21v7.18H7.06v5.39H0V0zm14.07 0h12.43v6.64h-5.37v3.52h5.21v7.18h-5.21v4.29h5.37v6.19H14.07V0zM28.15 0h9.78l3.6 9.49L45.13 0h9.79v23.82h-7.2V9.68l-4.97 14.14h-2.44L35.35 9.68v14.14h-7.2V0zm28.58 0h9.6c9.52 0 12.7 4.51 12.7 11.91 0 7.4-3.22 11.91-12.74 11.91h-9.56V0zm7.38 17.18h1.31c3.18 0 5.58-.8 5.58-5.27s-2.36-5.27-5.54-5.27h-1.35v10.54zM88.7 24c-8.9 0-11.9-5.2-11.9-12.2S79.8-.4 88.7-.4c8.9 0 11.9 5.2 11.9 12.2s-3 12.2-11.9 12.2zm0-17.95c-2.54 0-4.26 2.22-4.26 5.75 0 3.53 1.72 5.76 4.26 5.76 2.54 0 4.26-2.23 4.26-5.76 0-3.53-1.72-5.75-4.26-5.75zM102.64 0h7.47v16.7c0 2.47 1.27 2.82 2.58 2.82 1.32 0 2.59-.35 2.59-2.82V0H123v16.7c0 6.82-5.57 7.4-10.29 7.4-4.72 0-10.07-.58-10.07-7.4V0z"/>
  </g>
</svg> 