<svg xmlns="http://www.w3.org/2000/svg" viewBox="0 0 175 24" fill="currentColor">
  <path d="M0 0h46v24H0V0z" fill-opacity="0" />
  <path d="M1.2 0A1.2 1.2 0 000 1.2v21.6A1.2 1.2 0 001.2 24h43.6a1.2 1.2 0 001.2-1.2V1.2A1.2 1.2 0 0044.8 0H1.2zm35.77 19.42c0 2.79-1.55 3.91-4.43 3.91h-5.84v-7.48h2.4v5.9h3.2c1.18 0 1.64-.58 1.64-2v-3.9h3.03v3.57zm10.91-3.37v1.82H41.1v1.56h7.51v1.59h-9.87v-7.48H48.4v1.56h-7.3v.95h6.78zM33.34 5.27v12.05h-2.65v-9.3l-3.34.27v-2.17l5.99-.85zm-8.66 7.48v4.57H11.5v-4.56h3.03v2.99h7.12v-2.99h3.03zm-1.82-7.36v7.48H10v-7.48h12.87zM8.15 17.32v1.82H1.37v1.56h7.51v1.59H-1v-7.48h9.67v1.56H1.37v.95h6.78zm4.38-14.93v2h-7.1v5.46H2.37V2.39h10.16zm15.94 10.05v2.56H13.2v-2.56h15.27zm-3-2.8h-9.4V7.4h9.4v2.24z"/>
</svg> 