<svg xmlns="http://www.w3.org/2000/svg" viewBox="0 0 180 24" fill="currentColor">
  <path d="M6,12c0,3.31,2.69,6,6,6s6-2.69,6-6s-2.69-6-6-6S6,8.69,6,12z M0,12c0-6.63,5.37-12,12-12s12,5.37,12,12 s-5.37,12-12,12S0,18.63,0,12z M42,18V6h-6V0h-6v18h12z M48,0h6v18h-6V0z M78,6h-6V0H60v18h12v-6h-6v-6h12V0 M114,12c0,3.31-2.69,6-6,6c-3.31,0-6-2.69-6-6s2.69-6,6-6C111.31,6,114,8.69,114,12z M96,12c0,6.63,5.37,12,12,12s12-5.37,12-12 S114.63,0,108,0S96,5.37,96,12z M138,0l-12,9v9h6v-6h6c3.31,0,6-2.69,6-6V6C144,2.69,141.31,0,138,0z M138,6 c0,1.66-1.34,3-3,3h-3V5.5l4.8-3.6C137.57,2.41,138,3.14,138,4V6z M150,0h6v18h-6V0z M180,6h-6V0h-12v18h6v-6h6v6h6V6z"></path>
</svg> 