<svg xmlns="http://www.w3.org/2000/svg" viewBox="0 0 122 24" fill="currentColor">
  <path d="M22.94,10.15a1.92,1.92,0,0,0-1.23-1.76l-6.39-2.12V3.39L23.85,8l.14-.12V18.59l-8.67,5V20.68l6.39-3.37a1.92,1.92,0,0,0,1.23-1.76Z"></path>
  <path d="M10.24,6.27,3.85,8.39a1.92,1.92,0,0,0-1.3,1.76v7.16a1.92,1.92,0,0,0,1.3,1.76l6.39,2.12V24L1.57,19.41,1.43,19.3V8.2l8.81-5Z"></path>
  <polygon points="13.85 0 12.71 0.76 11.57 0 12.71 14.86 13.85 15.62 14.99 14.86 16.13 15.62 13.85 0"></polygon>
  <path d="M42,12.24a4.13,4.13,0,0,1-4.18,4.26A4.33,4.33,0,0,1,33,15.18a6.91,6.91,0,0,1-1-3.57,7,7,0,0,1,1.12-3.9A4.38,4.38,0,0,1,37,6h.42a4,4,0,0,1,3.44,1.91l.21.31-1.19.67-.24-.27a2.71,2.71,0,0,0-2.22-1h-.21a2.74,2.74,0,0,0-2.52,1.55,5.51,5.51,0,0,0-.7,2.78,5.41,5.41,0,0,0,.7,2.76,2.43,2.43,0,0,0,2.24,1.34A2.56,2.56,0,0,0,39,14.48a2.86,2.86,0,0,0,.73-1.95V12H37.42V10.61H42Z"></path>
  <path d="M47.73,10.61a4.42,4.42,0,0,1,3,1,3.87,3.87,0,0,1,1.25,3.07,3.84,3.84,0,0,1-1.25,3,4.55,4.55,0,0,1-3.11,1.09H43.31V6.28h1.36v4.33Zm.14,6.79a2.83,2.83,0,0,0,2-.65A2.76,2.76,0,0,0,50.63,15a2.79,2.79,0,0,0-.74-2.09,2.83,2.83,0,0,0-2-.65H44.67V17.4Z"></path>
  <polygon points="54.77 6.28 56.13 6.28 56.13 17.4 61.43 17.4 61.43 18.8 54.77 18.8 54.77 6.28"></polygon>
  <path d="M72.72,18.8h-1.5l-1.09-2.91H65.05L63.94,18.8h-1.5l4.49-12.52h1.31Zm-3.06-4.28L68,10.16c-.21-.52-.35-.94-.44-1.27a8.28,8.28,0,0,1-.37,1.3L65.51,14.52Z"></path>
  <polygon points="82.62 18.8 78.69 13.46 74.77 18.8 73.05 18.8 77.83 12.52 73.48 6.73 75.2 6.73 78.69 11.5 82.2 6.73 83.92 6.73 79.57 12.52 84.34 18.8 82.62 18.8"></polygon>
  <polygon points="91.86 18.8 85.53 18.8 85.53 6.28 91.86 6.28 91.86 7.67 86.89 7.67 86.89 11.32 91.25 11.32 91.25 12.71 86.89 12.71 86.89 17.39 91.86 17.39 91.86 18.8"></polygon>
  <path d="M98.8,14.76v4H97.44V6.28h3.07a3.94,3.94,0,0,1,2.7.89,3.2,3.2,0,0,1,1,2.53,3.19,3.19,0,0,1-1,2.46,3.83,3.83,0,0,1-2.7.87H98.8ZM98.8,7.67v5.71h1.71a2.36,2.36,0,0,0,1.73-.63,2.27,2.27,0,0,0,.64-1.71,2.43,2.43,0,0,0-.61-1.74,2.32,2.32,0,0,0-1.76-.63Z"></path>
  <path d="M110.65,14.76v4h-1.36V6.28h3.07a3.93,3.93,0,0,1,2.69.89,3.17,3.17,0,0,1,1,2.53,3.19,3.19,0,0,1-1,2.46,3.83,3.83,0,0,1-2.69.87h-1.71Zm0-7.09v5.71h1.71a2.33,2.33,0,0,0,1.72-.63,2.23,2.23,0,0,0,.64-1.71,2.43,2.43,0,0,0-.61-1.74,2.32,2.32,0,0,0-1.75-.63Z"></path>
  <polygon points="117.91 6.28 119.28 6.28 119.28 17.4 120.3 17.4 120.3 18.8 117.91 18.8 117.91 6.28"></polygon>
</svg> 