<svg xmlns="http://www.w3.org/2000/svg" viewBox="0 0 107 24" fill="currentColor">
  <path d="M7.69,11.75c-.09,2.52-1,3-1.8,3a1.73,1.73,0,0,1-1.35-.63l-.09,5A8.59,8.59,0,0,0,6,19.44c1.35,0,3.69-.36,4.86-3.87a49.48,49.48,0,0,0,2-11.17H7.78C7.73,6.13,7.69,11.75,7.69,11.75Z"/>
  <path d="M12.06,11.75c-.09,2.52-1,3-1.8,3a2.47,2.47,0,0,1-.81-.18l-.09,3.78a3.61,3.61,0,0,0,1.08.18c1.35,0,3.69-.36,4.86-3.87a49.48,49.48,0,0,0,2-11.17h-5A60.5,60.5,0,0,1,12.06,11.75Z"/>
  <path d="M19.78,11.75c-.09,2.52-1,3-1.8,3a2.42,2.42,0,0,1-.81-.18l-.09,3.78a3.59,3.59,0,0,0,1.08.18c1.35,0,3.69-.36,4.86-3.87a51.22,51.22,0,0,0,2-11.17h-5C19.74,6.13,19.78,11.75,19.78,11.75Z"/>
  <path d="M24.66,4.49h5.22a51.22,51.22,0,0,1-2,11.17C26.74,18.9,24.4,19.44,23.05,19.44a4.56,4.56,0,0,1-1.08-.18l.09-3.78a1.77,1.77,0,0,0,.81.18c.81,0,1.71-.45,1.8-3A60.5,60.5,0,0,0,24.66,4.49Z"/>
  <path d="M30.42,11.75c-.09,2.52-1,3-1.8,3a1.73,1.73,0,0,1-1.35-.63l-.09,5a8.61,8.61,0,0,0,1.53.36c1.35,0,3.69-.36,4.86-3.87a49.48,49.48,0,0,0,2-11.17h-5C30.47,6.13,30.42,11.75,30.42,11.75Z"/>
  <path d="M38.15,11.75c-.09,2.52-1,3-1.8,3a2.47,2.47,0,0,1-.81-.18l-.09,3.78a3.63,3.63,0,0,0,1.08.18c1.35,0,3.69-.36,4.86-3.87a49.48,49.48,0,0,0,1.95-11.17h-5C38.2,6.13,38.15,11.75,38.15,11.75Z"/>
  <path d="M107,4.49c-3.23,0-6.29,3.6-7.73,8.64-1.17,4-5,6.31-9.71,6.31a8.19,8.19,0,0,1-5-1.44,4.07,4.07,0,0,1-1.35,1.08,7.59,7.59,0,0,1-4.23,1,8.37,8.37,0,0,1-6.48-2.79A4.87,4.87,0,0,1,71.19,19a8,8,0,0,1-5.94-2.52C64,15.35,62.84,14.9,61.31,15a1.42,1.42,0,0,0-.9.36c-.09,2.34-1.71,4.05-4.77,4.05s-6.75-1.44-6.75-5.85a9.5,9.5,0,0,1,0-1.08c-1.44-1.71-2-5.31-1.44-6.75a7.31,7.31,0,0,1-3.42.9,7.46,7.46,0,0,1-5.94-2.61c-.27-1.35.18-3.15,0-3.24-3.87.09-7,4.23-8.19,9.09-.9,3.78,0,5.94,2.7,5.4a4.49,4.49,0,0,0,1.44-.54,3.36,3.36,0,0,1-.36,1.44C33,18.36,32.07,19,29.65,19a8.25,8.25,0,0,1-2.79-.54l-.41,2.47a4.77,4.77,0,0,0,.34,2.33L27.05,24l.54-.27c.09-.09,2.34-2.16,3.15-2.07s1.26,1,2.52.9,2.25-.81,2.43-1.89A28.36,28.36,0,0,0,38,18.19a8.84,8.84,0,0,0,6.66,2.34,6.92,6.92,0,0,0,4.77-1.71,8.92,8.92,0,0,0,5.85,2.16c2.43,0,4.05-.81,4.95-1.89a8.46,8.46,0,0,0,7,2.34,7.63,7.63,0,0,0,4.41-1.89,6.67,6.67,0,0,0,4.32,1.89,5.94,5.94,0,0,0,4-1.71,9.41,9.41,0,0,0,7.55,2.16c3.69-.45,5.67-2.7,6.39-5.67,5.67-.63,8.82-4,9.89-8.73.9-4.23.36-6.66-1.89-6.66-1.53,0-3.15,1.17-3.15,3.51s1.89,3.51,3.78,1.62a15.89,15.89,0,0,0-1.17,4.86c-.18,2.61.81,3.69,2.52,3.69s3.51-2.07,3.87-5.85C107.45,5.84,107.36,4.49,107,4.49ZM62.21,12.65c1.35,2-2.7,4.05-4.14,1.35-.81-1.53-.9-6.21,1.53-6.12C62.75,8,62.21,11.84,62.21,12.65ZM74.69,18a3,3,0,0,1-2.16-.9,9.17,9.17,0,0,0,.09-1.17c0-.45-1.26-.63-1.62-.18a4.61,4.61,0,0,1-4,2.25c-2.25,0-3.69-1.26-3.69-4.14S64,9.23,67.67,8.51a12.47,12.47,0,0,1,2.7-.09,3.1,3.1,0,0,0,.45-1.62c0-1.17-.9-1.62-2.16-1.62-2.7,0-5.76,1.89-7.29,6.21a9.37,9.37,0,0,0-.63,3.33c0,2.88,1.62,4.59,4.14,4.59a5.19,5.19,0,0,0,3.87-1.62,2.7,2.7,0,0,0,2.7,1.62c3.6,0,5.67-3.87,5.67-6.12,0-.72-.27-1-1.17-1.08,0,1.8-.27,4.95-1,5.85ZM82.06,8a2.49,2.49,0,0,0-2.7,2.7c0,5,7.11,2.61,6.93,7.11,0,1.89-1.8,3.15-4.23,3.15a6.75,6.75,0,0,1-3.78-1.35v-.63a4.36,4.36,0,0,0,.9.18c.54,0,.63-.18.63-.54a4,4,0,0,0-1.44-3.15,1.26,1.26,0,0,0-.9-.36c-.72,0-1,.45-1.17,1.62a5.45,5.45,0,0,1-.54,2.25A5.42,5.42,0,0,0,81.7,20.7c3.42,0,5.94-2,5.94-5.22C87.64,11.39,82,13,82,9.77c0-1,.81-1.35,1.62-1.35a5.52,5.52,0,0,1,3.33,1.26,6.7,6.7,0,0,1-1.08-1.26A3.9,3.9,0,0,0,82.06,8Zm14.4,7.2a2.41,2.41,0,0,1-1.71.72c-.36,0-.54-.27-.54-.81a41.87,41.87,0,0,1,1.53-8.91H91.06c-1.08,5.67-1.71,9-1.71,11.52,0,1.53.63,2.43,1.89,2.43a3,3,0,0,0,2.34-1.17,8.06,8.06,0,0,0,1.8-3.78Zm5.85,2.79c-1.62,0-2.25-1.08-2.25-2.7s1-4.14,2.52-4.14c.9,0,.81,1.17.72,2l-.09,1a4.14,4.14,0,0,0-.09,1.17C103.12,17.46,103.66,18,104.83,18a3,3,0,0,0,2-.9C105.91,17.81,103.84,18,102.31,18Z"/>
</svg> 