<svg xmlns="http://www.w3.org/2000/svg" viewBox="0 0 85 24" fill="currentColor">
  <path d="M4.5,15.73c0,3.69,1.13,5.34,3.76,5.34s3.88-1.66,3.88-5.34V8.27c0-3.69-1.25-5.34-3.88-5.34S4.5,4.58,4.5,8.27v7.45ZM0,7.73C0,2.85,2.23,0,8.27,0c5.92,0,8.38,2.85,8.38,7.73v8.54c0,4.88-2.46,7.73-8.38,7.73C2.23,24,0,21.15,0,16.27V7.73Z"/>
  <path d="M18.65,23.65h4.5V1.15H19.04v14.08c0,1.15-.32,1.77-1.15,2.31l-1.92,1.27,1.31,3.42,1.38-.58Z"/>
  <path d="M38.31,1.15h-4.61V13.5c0,.69-.12,1.27-.92,1.27s-.92-.58-.92-1.27V1.15h-4.61V14.31c0,3.46,1.5,5.34,5.53,5.34,4.15,0,5.53-1.88,5.53-5.34V1.15Z"/>
  <path d="M44.65,8.42c0-.69,.23-1.04,.92-1.04s.92,.35,.92,1.04v2.08h4.62V7.73c0-3.23-1.84-5-5.53-5s-5.42,1.77-5.42,5v8.54c0,3.23,1.73,5,5.42,5s5.53-1.77,5.53-5v-2.77h-4.62v2.08c0,.69-.23,1.04-.92,1.04s-.92-.35-.92-1.04V8.42Z"/>
  <path d="M57.81,13.15c0,1.96,1.27,2.88,3.11,3.69,1.5,.58,1.84,1.04,1.84,1.73,0,.58-.35,.92-1.04,.92s-1.04-.35-1.04-1.04v-1.04h-4.5v.58c0,3.11,1.61,5.11,5.53,5.11s5.53-1.73,5.53-4.84c0-2.19-1.15-3.23-3.34-4.38-1.38-.58-1.61-.92-1.61-1.5s.23-.81,.92-.81,.92,.35,.92,.92v.92h4.5v-.46c0-2.88-1.61-4.84-5.42-4.84s-5.42,1.5-5.42,5.04Z"/>
  <path d="M74.65,4.08V23.65h4.5V4.08h5.31V1.15H69.35V4.08h5.31Z"/>
</svg> 